<svg width="33" height="33" viewBox="0 0 33 33" fill="none" xmlns="http://www.w3.org/2000/svg">
<path d="M25.7311 29C25.504 29 25.2995 28.9385 25.1177 28.8154C24.936 28.6924 24.8076 28.5102 24.7325 28.2689C22.2964 27.9021 20.184 26.8274 18.3952 25.0448C16.6061 23.2625 15.338 20.981 14.5908 18.2004C12.368 19.0515 10.5782 20.4081 9.22151 22.2701C7.86481 24.1319 7.10428 26.2545 6.93994 28.638H6C6.1285 25.9845 6.93291 23.649 8.41323 21.6316C9.89355 19.6141 11.883 18.1497 14.3815 17.2383C13.9539 15.0817 13.8862 13.0558 14.1784 11.1608C14.4706 9.26552 15.0797 7.73751 16.0054 6.57673C15.9584 6.50841 15.927 6.43213 15.9114 6.3479C15.8957 6.26389 15.8878 6.17976 15.8878 6.09554C15.8722 5.78899 15.9689 5.52971 16.178 5.3177C16.3872 5.1059 16.6508 5 16.9689 5C17.2711 5 17.5268 5.10198 17.7359 5.30593C17.9451 5.50989 18.0497 5.77309 18.0497 6.09554C18.0497 6.40209 17.9451 6.66137 17.7359 6.87338C17.5268 7.08518 17.2711 7.19108 16.9689 7.19108C16.9233 7.19108 16.8739 7.18716 16.8207 7.17931C16.7674 7.17147 16.7258 7.16507 16.6961 7.16011C15.9677 8.13365 15.4715 9.18894 15.2075 10.326C14.9436 11.4628 14.8719 12.8537 14.9925 14.4988C15.3623 13.6002 15.931 12.8785 16.6986 12.3337C17.4661 11.7892 18.4099 11.4057 19.53 11.1834C19.9717 11.0087 20.4581 10.8789 20.9892 10.7939C21.5203 10.709 22.0788 10.661 22.6647 10.6499C22.7602 10.4847 22.8891 10.3489 23.0512 10.2424C23.2133 10.1361 23.3985 10.0829 23.6068 10.0829C23.9092 10.0829 24.165 10.1889 24.3742 10.4009C24.5833 10.6129 24.6879 10.8721 24.6879 11.1784C24.6879 11.485 24.5833 11.7443 24.3742 11.9563C24.165 12.1683 23.9092 12.2743 23.6068 12.2743C23.3891 12.2743 23.1906 12.2151 23.0111 12.0969C22.8319 11.9786 22.7023 11.8138 22.6223 11.6027C21.9629 11.6088 21.3954 11.6517 20.9199 11.7312C20.4446 11.8106 20.0087 11.9218 19.6122 12.0647C18.2791 12.3347 17.2754 12.8722 16.6011 13.6773C15.9266 14.4824 15.5934 15.54 15.6013 16.85C16.3141 16.6578 17.0691 16.5275 17.8664 16.4592C18.6637 16.3909 19.4054 16.3766 20.0917 16.4165C20.1873 16.2212 20.3196 16.0655 20.4889 15.9495C20.6579 15.8337 20.8513 15.7758 21.0693 15.7758C21.3715 15.7758 21.6272 15.8817 21.8363 16.0935C22.0454 16.3055 22.15 16.5648 22.15 16.8713C22.15 17.1779 22.0454 17.4372 21.8363 17.6492C21.6272 17.861 21.3715 17.9669 21.0693 17.9669C20.856 17.9669 20.6645 17.9114 20.4947 17.8003C20.3246 17.6892 20.1973 17.5329 20.1128 17.3312C19.5019 17.2913 18.7883 17.312 17.9721 17.3931C17.1558 17.474 16.4063 17.6185 15.7235 17.8266C15.9569 19.0239 16.5533 19.9155 17.5126 20.5014C18.4722 21.0874 19.8254 21.3725 21.5721 21.3566C22.0278 21.3566 22.5393 21.3284 23.1064 21.2721C23.6734 21.2155 24.2655 21.1388 24.8828 21.042C24.9532 20.8118 25.0856 20.6237 25.2799 20.4775C25.4742 20.3314 25.6873 20.2583 25.9192 20.2583C26.2371 20.2583 26.4968 20.3643 26.6982 20.5763C26.8994 20.7883 27 21.0476 27 21.3541C27 21.6607 26.8994 21.9199 26.6982 22.1317C26.4968 22.3437 26.2371 22.4497 25.9192 22.4497C25.7563 22.4497 25.5996 22.4092 25.4491 22.3283C25.2988 22.2474 25.186 22.1418 25.1107 22.0115C24.3822 22.129 23.7173 22.212 23.1159 22.2605C22.5143 22.3088 21.9605 22.3329 21.4545 22.3329C20.4645 22.3329 19.5701 22.231 18.7712 22.027C17.9721 21.823 17.2867 21.5067 16.7151 21.0779C17.6158 22.8627 18.7675 24.2859 20.1702 25.3474C21.5732 26.4089 23.1402 27.0675 24.8712 27.3232C24.9667 27.1723 25.088 27.0489 25.2353 26.9529C25.3825 26.8567 25.5478 26.8086 25.7311 26.8086C26.0492 26.8086 26.3088 26.9146 26.51 27.1266C26.7114 27.3386 26.8121 27.5979 26.8121 27.9045C26.8121 28.2108 26.7114 28.47 26.51 28.682C26.3088 28.894 26.0492 29 25.7311 29Z" fill="white"/>
</svg>
