<svg width="30" height="30" viewBox="0 0 30 30" fill="none" xmlns="http://www.w3.org/2000/svg">
<path d="M15.0891 23.2597C15.3101 23.2437 15.4771 23.1972 15.59 23.1203C15.7031 23.0432 15.7597 22.9282 15.7597 22.7753C15.7597 22.6351 15.7009 22.5305 15.5834 22.4616C15.4659 22.3926 15.2987 22.3581 15.0819 22.3581C14.2227 22.3902 13.2759 22.1062 12.2416 21.506C11.2072 20.9057 10.565 19.9077 10.315 18.5119C10.2894 18.3244 10.2323 18.1894 10.1438 18.1069C10.0554 18.0244 9.95323 17.9831 9.83719 17.9831C9.69885 17.9831 9.58729 18.0356 9.5025 18.1406C9.4175 18.2456 9.38781 18.3919 9.41344 18.5794C9.72594 20.2652 10.4896 21.4707 11.7044 22.196C12.9192 22.9212 14.0474 23.2757 15.0891 23.2597ZM14.9956 26.25C12.4969 26.25 10.4146 25.3902 8.74875 23.6706C7.08292 21.9513 6.25 19.8111 6.25 17.25C6.25 15.4552 6.97396 13.47 8.42188 11.2944C9.86979 9.11898 12.0625 6.73241 15 4.1347C17.9375 6.73241 20.1302 9.11898 21.5781 11.2944C23.026 13.47 23.75 15.4552 23.75 17.25C23.75 19.8111 22.9156 21.9513 21.2469 23.6706C19.5779 25.3902 17.4942 26.25 14.9956 26.25ZM15.0013 25.2885C17.2375 25.2885 19.0945 24.5232 20.5722 22.9928C22.0497 21.4624 22.7884 19.5474 22.7884 17.2478C22.7884 15.6676 22.1278 13.8787 20.8066 11.881C19.4851 9.88346 17.5496 7.73408 15 5.43283C12.4504 7.73408 10.5149 9.88346 9.19344 11.881C7.87219 13.8787 7.21156 15.6676 7.21156 17.2478C7.21156 19.5474 7.95073 21.4624 9.42906 22.9928C10.9074 24.5232 12.7648 25.2885 15.0013 25.2885Z" fill="white"/>
</svg>
